# xmcd
#
# Track frame offsets:
#	150
#	15275
#	30210
#	38852
#	55480
#	65525
#	76135
#	84475
#	99007
#	112127
#	122305
#
# Disc length: 1825 seconds
#
# Revision: 1
# Processed by: cddbd v1.5.2PL0 Copyright (c) Steve Scherf et al.
# Submitted via: audiograbber 1.83.01
#
DISCID=74071f0b
DTITLE=John Hore and Howard Morrison - John Hore and Howard Morrison - Take Ten
DYEAR=1996
DGENRE=Country
TTITLE0=Ten Guitars
TTITLE1=Born To Be With You
TTITLE2=Wallpaper Roses
TTITLE3=Shenandoah
TTITLE4=Country Boy Dream
TTITLE5=Walkin' In The Sunshine
TTITLE6=Blue Moon Of Kentucky
TTITLE7=Cool Water and Tumblin' Tumbleweed
TTITLE8=Blue Shadows On The Trail
TTITLE9=If I Could Just Go Back
TTITLE10=Under Your Spell Again
EXTD=
EXTT0=
EXTT1=
EXTT2=
EXTT3=
EXTT4=
EXTT5=
EXTT6=
EXTT7=
EXTT8=
EXTT9=
EXTT10=
PLAYORDER=
